<svg width="100" height="100" viewBox="0 0 100 100" fill="none" xmlns="http://www.w3.org/2000/svg">
<g opacity="0.8" clip-path="url(#clip0_40_3328)">
<path d="M98.457 20.1773H90.3149C90.5514 19.8455 90.7658 19.4968 90.9534 19.1313C92.0307 17.0271 92.1764 14.5491 91.3532 12.332L88.8859 5.7005C88.0634 3.48568 86.3354 1.70497 84.1465 0.815377C81.9553 -0.074977 79.4734 -0.00402337 77.3364 1.01069L57.8097 10.2843C56.8446 9.59456 55.6643 9.18715 54.3902 9.18715H45.6102C44.3361 9.18715 43.1551 9.59532 42.19 10.285L22.664 1.00993C20.527 -0.00402327 18.0451 -0.074977 15.8539 0.815377C13.6651 1.70497 11.937 3.48568 11.1145 5.69974L8.64719 12.3328C7.82398 14.5491 7.9697 17.0271 9.04774 19.1313C9.23466 19.4968 9.44981 19.8462 9.68632 20.1773H1.54343C0.691226 20.1773 0 20.8678 0 21.7208V32.8315C0 33.6837 0.691226 34.3749 1.54343 34.3749C2.39564 34.3749 3.08687 33.6837 3.08687 32.8315V23.2634H13.807C13.9786 23.3237 14.1526 23.3794 14.3288 23.4282L27.2859 26.995C24.4065 31.4071 21.8667 36.0481 19.6923 40.8569H3.08687V39.0045C3.08687 38.1523 2.39564 37.4618 1.54343 37.4618C0.691226 37.4618 0 38.1523 0 39.0045V42.4003C0 43.2525 0.691226 43.9438 1.54343 43.9438H7.0473V98.5834C7.0473 99.4364 7.73853 100.127 8.59073 100.127H91.4097C92.2619 100.127 92.9531 99.4364 92.9531 98.5834V89.6219C92.9531 88.7697 92.2619 88.0785 91.4097 88.0785C90.5567 88.0785 89.8662 88.7697 89.8662 89.6219V97.0408H59.2593V44.8929C63.6309 53.1731 66.5904 62.1766 67.9522 71.4791C68.0423 72.0948 68.4939 72.5961 69.0974 72.7502C69.2241 72.783 69.3522 72.7983 69.4797 72.7983C69.9565 72.7983 70.4158 72.577 70.7118 72.1841C72.9304 69.2407 74.9934 66.0897 76.8558 62.7999C79.9747 64.9239 83.0028 67.2921 85.8761 69.8556C86.3605 70.2874 87.064 70.3706 87.6354 70.0623C88.2068 69.7549 88.525 69.1224 88.4304 68.48C87.1982 60.0747 84.901 51.8089 81.6448 43.9438H89.8655V83.4482C89.8655 84.3011 90.5567 84.9916 91.4089 84.9916C92.2619 84.9916 92.9523 84.3011 92.9523 83.4482V43.9438H98.457C99.3092 43.9438 99.9996 43.2525 99.9996 42.4003V21.7208C100 20.8678 99.31 20.1773 98.457 20.1773ZM78.6601 3.79848C80.0373 3.1454 81.5723 3.10115 82.9845 3.67489C84.3944 4.24786 85.4625 5.34878 85.9928 6.77625L88.4594 13.407C88.9904 14.8352 88.8996 16.3687 88.2053 17.7245C87.5118 19.0795 86.3209 20.0484 84.853 20.452L60.2854 27.2155V19.7982C65.8076 16.4168 79.5742 9.44273 83.0005 14.279C83.4926 14.9741 84.4555 15.1396 85.1513 14.6468C85.8471 14.1539 86.0119 13.1903 85.519 12.4953C82.8746 8.76219 77.3021 8.58061 68.9548 11.9566C65.5162 13.3467 62.3416 15.0435 60.2854 16.2207V15.0816C60.2854 14.2554 60.1138 13.468 59.8055 12.7531L78.6601 3.79848ZM45.6102 12.2733H54.3902C55.9389 12.2733 57.1986 13.5336 57.1986 15.0816V27.8388C57.1986 29.3876 55.9389 30.6472 54.3902 30.6472H45.6102C44.0615 30.6472 42.8018 29.3876 42.8018 27.8388V15.0816C42.8018 13.5329 44.0615 12.2733 45.6102 12.2733ZM43.0162 40.8561C44.4925 38.4033 46.0993 36.0259 47.8281 33.7341H52.1708C53.9004 36.0259 55.5071 38.4033 56.9827 40.8561H43.0162ZM11.7951 17.7245C11.1008 16.3687 11.01 14.8352 11.5403 13.4077L14.0084 6.77549C14.5379 5.34878 15.606 4.24786 17.0159 3.67489C18.4274 3.10115 19.9632 3.1454 21.3395 3.79848L40.1949 12.7547C39.8866 13.4688 39.715 14.2554 39.715 15.0824V16.3092C37.6657 15.1297 34.4194 13.3826 30.8931 11.9566C22.5465 8.58061 16.9732 8.76219 14.3288 12.4953C13.836 13.1903 14.0008 14.1539 14.6966 14.6468C15.3924 15.1396 16.3552 14.9748 16.8473 14.279C20.3057 9.39696 34.2988 16.5488 39.715 19.892V27.2155L15.1482 20.4528C13.6796 20.0484 12.4886 19.0795 11.7951 17.7245ZM40.4077 30.6075C41.176 32.0449 42.5218 33.1291 44.1339 33.5464C36.9157 43.6172 31.9467 55.1888 29.6159 67.3516C27.9763 64.956 26.4436 62.4451 25.0405 59.8519C24.8353 59.4719 24.4813 59.1958 24.0624 59.0897C23.6444 58.9837 23.2011 59.0577 22.8402 59.2934C20.2699 60.9696 17.7529 62.8083 15.3222 64.7828C17.8254 51.6434 22.9974 38.974 30.4139 27.8564L40.4077 30.6075ZM10.1342 43.9438H18.3556C15.0994 51.8089 12.8022 60.0739 11.5693 68.48C11.4754 69.1224 11.7928 69.7549 12.3642 70.0623C12.9365 70.3698 13.6391 70.2874 14.1236 69.8556C16.9968 67.2921 20.025 64.9239 23.1446 62.7999C25.007 66.0897 27.0692 69.2399 29.2886 72.1841C29.5846 72.577 30.0439 72.799 30.5208 72.799C30.6482 72.799 30.7763 72.783 30.903 72.7502C31.5065 72.5961 31.9574 72.0948 32.0474 71.4791C33.41 62.1766 36.3695 53.1723 40.7404 44.8921V97.0408H10.1342V43.9438ZM43.8272 97.0408V43.9438H56.1732V97.0408H43.8272ZM77.1602 59.2934C76.7993 59.0577 76.3553 58.9844 75.938 59.0905C75.5199 59.1965 75.1651 59.4727 74.9599 59.8519C73.5568 62.4451 72.0241 64.9567 70.3845 67.3516C68.0537 55.188 63.0847 43.6172 55.8657 33.5471C57.4778 33.1306 58.8244 32.0457 59.5927 30.6075L69.5888 27.8556C77.0038 38.9755 82.1758 51.6449 84.679 64.7828C82.2475 62.8083 79.7306 60.9696 77.1602 59.2934ZM96.9135 40.8569H80.3089C78.1345 36.0481 75.5946 31.4071 72.7161 26.995L85.6716 23.4282C85.8478 23.3794 86.0218 23.3237 86.1934 23.2634H96.9135V40.8569Z" fill="white"/>
</g>
<defs>
<clipPath id="clip0_40_3328">
<rect width="100" height="100" fill="white"/>
</clipPath>
</defs>
</svg>
