<svg width="100" height="100" viewBox="0 0 100 100" fill="none" xmlns="http://www.w3.org/2000/svg">
<g opacity="0.8" clip-path="url(#clip0_40_3336)">
<path d="M28.1861 31.1069H30.1352C29.3877 30.0826 28.7564 28.9698 28.2416 27.7905C27.3115 25.6369 26.7967 23.2783 26.7967 20.8035C26.7967 18.6442 27.1898 16.5625 27.915 14.636C28.6625 12.6373 29.7588 10.8157 31.1318 9.24338C31.6633 8.6344 32.5879 8.57327 33.1914 9.10491C33.8004 9.63655 33.8613 10.5555 33.3297 11.1645C32.1836 12.4766 31.2701 13.9938 30.65 15.6547C30.0521 17.2491 29.7254 18.9821 29.7254 20.8035C29.7254 22.8854 30.1518 24.8561 30.9213 26.6334C31.6465 28.3055 32.6818 29.8225 33.9496 31.1069H54.8277C56.0955 29.8225 57.1309 28.3055 57.8561 26.6334C58.6256 24.8561 59.052 22.8854 59.052 20.8035C59.052 16.7563 57.4131 13.0856 54.7557 10.4336C52.1035 7.78186 48.4385 6.13752 44.3857 6.13752C43.2674 6.13752 42.1877 6.2592 41.1635 6.48616C40.1115 6.72424 39.0873 7.07854 38.1184 7.53811C37.3875 7.88694 36.5184 7.57151 36.175 6.84065C35.8262 6.10979 36.1418 5.24065 36.8727 4.89749C38.0187 4.35491 39.2479 3.92854 40.5379 3.64065C41.7893 3.35823 43.0791 3.20862 44.3857 3.20862C49.2469 3.20862 53.6428 5.17971 56.8318 8.36311C58.3766 9.90784 59.6332 11.7405 60.5191 13.7725C61.2443 12.1115 62.2188 10.5832 63.3926 9.24358C63.924 8.6346 64.8486 8.57346 65.4521 9.1051C66.0611 9.63674 66.1221 10.5557 65.5904 11.1647C64.4443 12.4768 63.5309 13.994 62.9053 15.6549C62.3072 17.2492 61.9807 18.9823 61.9807 20.8037C61.9807 22.8856 62.4125 24.8563 63.1822 26.6336C63.9074 28.3057 64.9371 29.8227 66.2105 31.1071H87.083C88.3564 29.8227 89.3918 28.3057 90.117 26.6336C90.8865 24.8563 91.3129 22.8856 91.3129 20.8037C91.3129 16.7565 89.6686 13.0858 87.0166 10.4338C84.3646 7.78206 80.6996 6.13772 76.6469 6.13772C75.523 6.13772 74.4488 6.2594 73.4246 6.48635C72.3727 6.72444 71.3484 7.07874 70.3795 7.53831C69.6486 7.88713 68.7795 7.57171 68.4307 6.84085C68.0875 6.10999 68.4029 5.24085 69.1283 4.89768C70.2799 4.3551 71.509 3.92874 72.7936 3.64085C74.0504 3.35842 75.3404 3.20881 76.6469 3.20881C81.508 3.20881 85.9039 5.17991 89.0873 8.36331C92.2707 11.5469 94.2418 15.9483 94.2418 20.8039C94.2418 23.2787 93.727 25.6373 92.7912 27.7908C92.2818 28.9701 91.6451 30.083 90.9033 31.1073H92.8465C94.8176 31.1073 96.6059 31.9157 97.9014 33.2112C99.1973 34.5063 100 36.2944 100 38.26V76.3674C100 78.3385 99.1973 80.1266 97.9016 81.4223C96.6061 82.7178 94.8178 83.5205 92.8467 83.5205H82.477L78.9891 95.7286C78.8119 96.3596 78.2361 96.7914 77.5828 96.7914H43.4559C42.7639 96.7914 42.1824 96.3098 42.0275 95.6621L38.5617 83.5205H28.1861C26.2207 83.5205 24.4324 82.7178 23.1369 81.4223C21.8414 80.1266 21.0332 78.3383 21.0332 76.3674V67.8799H16.0004V70.7754C16.0004 71.4842 15.4965 72.0823 14.8211 72.2151L1.87129 75.9688C0.946875 76.2403 0 75.5371 0 74.5684V60.6328C0 59.8244 0.658789 59.1657 1.46719 59.1657C2.27539 59.1657 2.92871 59.8244 2.92871 60.6328V72.6248L13.0717 69.6793C13.0717 61.4356 13.0717 53.1916 13.0717 44.9479L2.92871 42.008V53.9946C2.92871 54.8086 2.27539 55.4617 1.46719 55.4617C0.658789 55.4617 0 54.8084 0 53.9946V40.0594C0 39.0241 1.04648 38.3264 1.99316 38.6973L14.943 42.451C15.5686 42.6338 16.0004 43.2039 16.0004 43.8518V46.7475H21.033V38.26C21.033 36.2944 21.8414 34.5063 23.1367 33.2108C24.4326 31.9096 26.2207 31.1069 28.1861 31.1069ZM76.6471 13.5229C78.6568 13.5229 80.4783 14.3367 81.7961 15.6545C83.1137 16.9721 83.9275 18.7936 83.9275 20.8033C83.9275 22.8129 83.1137 24.6346 81.7961 25.9522C80.4783 27.2699 78.6568 28.0838 76.6471 28.0838C74.6373 28.0838 72.8158 27.2699 71.4982 25.9522C70.1805 24.6346 69.3666 22.8131 69.3666 20.8033C69.3666 18.7936 70.1805 16.9721 71.4982 15.6545C72.8158 14.3367 74.6373 13.5229 76.6471 13.5229ZM79.7254 17.7252C78.9393 16.9391 77.8484 16.4518 76.6471 16.4518C75.4457 16.4518 74.3605 16.9389 73.5687 17.7252C72.7826 18.5168 72.2953 19.602 72.2953 20.8035C72.2953 22.0049 72.7824 23.0957 73.5687 23.8817C74.3605 24.6678 75.4455 25.1553 76.6471 25.1553C77.8484 25.1553 78.9393 24.668 79.7254 23.8817C80.5115 23.0957 80.9988 22.0049 80.9988 20.8035C80.9988 19.602 80.5115 18.5168 79.7254 17.7252ZM44.3859 13.5229C46.4012 13.5229 48.2172 14.3367 49.535 15.6545C50.8525 16.9721 51.6664 18.7936 51.6664 20.8033C51.6664 22.8129 50.8525 24.6346 49.535 25.9522C48.2172 27.2699 46.4014 28.0838 44.3859 28.0838C42.3762 28.0838 40.5604 27.2699 39.2426 25.9522C37.9248 24.6346 37.1055 22.8131 37.1055 20.8033C37.1055 18.7936 37.925 16.9721 39.2426 15.6545C40.5604 14.3367 42.3762 13.5229 44.3859 13.5229ZM47.4645 17.7252C46.6783 16.9391 45.593 16.4518 44.3861 16.4518C43.1848 16.4518 42.0996 16.9389 41.3135 17.7252C40.5273 18.5168 40.04 19.602 40.04 20.8035C40.04 22.0049 40.5271 23.0957 41.3135 23.8817C42.0996 24.6678 43.1848 25.1553 44.3861 25.1553C45.5875 25.1553 46.6783 24.668 47.4645 23.8817C48.2506 23.0957 48.7379 22.0049 48.7379 20.8035C48.7377 19.602 48.2504 18.5168 47.4645 17.7252ZM50.0609 61.5686C50.6367 62.1387 50.6367 63.069 50.0609 63.6393C49.4906 64.2094 48.5605 64.2094 47.9902 63.6393L43.7936 59.4424C41.6842 57.333 40.6322 54.5594 40.6322 51.7854C40.6322 49.0117 41.6842 46.2325 43.7936 44.1284C45.8311 42.0909 48.5715 40.967 51.4506 40.967C54.2244 40.967 56.9982 42.019 59.1076 44.1284L60.5195 45.5403L61.9313 44.1284C64.0352 42.019 66.8145 40.967 69.5883 40.967C72.3621 40.967 75.1357 42.019 77.2453 44.1284C79.2771 46.1604 80.4066 48.9063 80.4066 51.7854C80.4066 54.5594 79.3492 57.3385 77.2453 59.4424L61.5549 75.1274C60.9846 75.7032 60.0545 75.7032 59.4842 75.1274L52.6853 68.3286C52.1096 67.7584 52.1096 66.8338 52.6853 66.2578C53.2557 65.6877 54.1857 65.6877 54.7561 66.2578L60.5195 72.0213L75.1746 57.3662C76.6584 55.8825 77.4777 53.8838 77.4777 51.7854C77.4777 49.7592 76.708 47.7328 75.1746 46.1991C73.6356 44.6655 71.6146 43.8959 69.5883 43.8959C67.5619 43.8959 65.5355 44.6655 64.002 46.1991L61.5547 48.6461C60.9844 49.2164 60.0543 49.2164 59.484 48.6461L57.0369 46.1991C55.5531 44.7153 53.5488 43.8903 51.4506 43.8903C49.4297 43.8903 47.4035 44.66 45.8643 46.1991C44.3307 47.7328 43.5611 49.7592 43.5611 51.7854C43.5611 53.8117 44.3307 55.8326 45.8643 57.3717L50.0609 61.5686ZM21.0332 64.9514V49.6817H16.0004V64.9514H21.0332ZM60.5193 27.8239C60.01 28.9918 59.3789 30.0938 58.6426 31.1069H62.3908C61.6598 30.0936 61.0287 28.9918 60.5193 27.8239ZM79.432 83.5207H41.6012L44.5576 93.8629H76.4754L79.432 83.5207ZM92.8467 34.0358C71.2934 34.0358 49.7398 34.0358 28.1861 34.0358C27.0291 34.0358 25.9717 34.5119 25.2076 35.2815C24.4381 36.0453 23.9619 37.1028 23.9619 38.2602V76.3676C23.9619 77.5303 24.4381 78.5823 25.2076 79.352C25.9717 80.1159 27.0291 80.5922 28.1861 80.5922H92.8467C94.0094 80.5922 95.0668 80.1161 95.8309 79.352C96.5951 78.5823 97.0711 77.5303 97.0711 76.3676V38.2602C97.0711 37.103 96.5949 36.0455 95.8309 35.2815C95.067 34.5118 94.0096 34.0358 92.8467 34.0358Z" fill="white"/>
</g>
<defs>
<clipPath id="clip0_40_3336">
<rect width="100" height="100" fill="white"/>
</clipPath>
</defs>
</svg>
