<svg width="19" height="20" viewBox="0 0 19 20" fill="none" xmlns="http://www.w3.org/2000/svg">
<path d="M18.0071 18.2337L12.744 12.9706C13.7423 11.7382 14.3432 10.1715 14.3432 8.46566C14.3432 4.51127 11.126 1.29407 7.17156 1.29407C3.21716 1.29407 0 4.51127 0 8.46566C0 12.4201 3.2172 15.6373 7.1716 15.6373C8.87742 15.6373 10.4442 15.0363 11.6766 14.0381L16.9396 19.3012C17.0871 19.4486 17.326 19.4486 17.4735 19.3012L18.0071 18.7675C18.1545 18.6201 18.1545 18.3811 18.0071 18.2337ZM7.1716 14.1274C4.04952 14.1274 1.50982 11.5877 1.50982 8.46566C1.50982 5.34358 4.04952 2.80389 7.1716 2.80389C10.2937 2.80389 12.8334 5.34358 12.8334 8.46566C12.8334 11.5877 10.2937 14.1274 7.1716 14.1274Z" fill="#956D84"/>
</svg>
